<?xml version="1.0" encoding="UTF-8" standalone="no"?>
<!-- Created with Inkscape (http://www.inkscape.org/) -->

<svg
   width="152.90604mm"
   height="36.492035mm"
   viewBox="0 0 152.90604 36.492035"
   version="1.1"
   id="svg1"
   inkscape:version="1.3 (0e150ed6c4, 2023-07-21)"
   sodipodi:docname="logo-2023.svg"
   xmlns:inkscape="http://www.inkscape.org/namespaces/inkscape"
   xmlns:sodipodi="http://sodipodi.sourceforge.net/DTD/sodipodi-0.dtd"
   xmlns="http://www.w3.org/2000/svg"
   xmlns:svg="http://www.w3.org/2000/svg">
  <sodipodi:namedview
     id="namedview1"
     pagecolor="#ffffff"
     bordercolor="#000000"
     borderopacity="0.25"
     inkscape:showpageshadow="2"
     inkscape:pageopacity="0.0"
     inkscape:pagecheckerboard="0"
     inkscape:deskcolor="#d1d1d1"
     inkscape:document-units="mm"
     inkscape:zoom="1.0378437"
     inkscape:cx="285.68849"
     inkscape:cy="339.64651"
     inkscape:window-width="3440"
     inkscape:window-height="1371"
     inkscape:window-x="0"
     inkscape:window-y="0"
     inkscape:window-maximized="1"
     inkscape:current-layer="layer1" />
  <defs
     id="defs1">
    <clipPath
       clipPathUnits="userSpaceOnUse"
       id="clipPath22">
      <path
         d="m 136.234,407.615 13.782,-3 -7.262,-33.375 -13.781,3 z"
         transform="matrix(1.3333333,0,0,-1.3333333,0,793.70077)"
         id="path22" />
    </clipPath>
    <clipPath
       clipPathUnits="userSpaceOnUse"
       id="clipPath20">
      <path
         d="M 32,323 H 145 V 449 H 32 Z"
         id="path20" />
    </clipPath>
  </defs>
  <g
     inkscape:label="Layer 1"
     inkscape:groupmode="layer"
     id="layer1"
     transform="translate(-29.3673,-58.62066)">
    <g
       id="g78"
       transform="matrix(0.26458333,0,0,0.26458333,8.3392752,6.8919404)">
      <path
         id="path16"
         d="m 62.469,196.242 4.855,-25.32 32.067,-21.352 c 1.808,-1.207 4.269,-0.613 5.472,1.258 l 34.004,52.914 c 1.203,1.871 0.684,4.305 -1.129,5.5 L 94.02,238.086 c -1.813,1.199 -4.27,0.613 -5.473,-1.258 z"
         style="fill:none;stroke:#808080;stroke-width:4.63915;stroke-linecap:butt;stroke-linejoin:miter;stroke-miterlimit:4;stroke-dasharray:none;stroke-opacity:1"
         transform="scale(1.3333333)" />
      <rect
         style="vector-effect:non-scaling-stroke;fill:#f9f9f9;-inkscape-stroke:hairline"
         id="rect78"
         width="14.120871"
         height="57.858463"
         x="165.50777"
         y="243.34331" />
      <path
         id="path78"
         d="m 170.87334,250.34315 -7.49467,37.48934 c -0.43733,2.26 -0.54666,4.172 -0.328,5.74 0.21867,1.56133 0.80267,2.82266 1.76,3.78 0.95867,0.95333 2.26134,1.652 3.912,2.084 1.65067,0.396 3.672,0.588 6.06267,0.588 2.30667,0 4.26,-0.23867 5.86933,-0.71867 1.60933,-0.47333 2.97867,-0.97333 4.10933,-1.5 1.13067,-0.56267 2.06267,-1.08267 2.80267,-1.56267 0.78133,-0.47866 1.45733,-0.71866 2.02,-0.71866 1.308,0 2.08933,0.328 2.34933,0.98 0.30267,0.65066 0.34934,1.43733 0.13067,2.348 -0.21867,1.13066 -0.912,2.26133 -2.08933,3.39066 -1.12934,1.084 -2.604,2.084 -4.432,3 -1.78134,0.87067 -3.84934,1.584 -6.192,2.152 -2.34933,0.56267 -4.82933,0.848 -7.43333,0.848 -2.69734,0 -5.328,-0.26533 -7.89067,-0.78533 -2.56667,-0.48 -4.80133,-1.37067 -6.71867,-2.672 -1.86933,-1.34933 -3.23333,-3.19333 -4.104,-5.54267 -0.828,-2.348 -0.86933,-5.39066 -0.12933,-9.12933 l 7.952,-39.64133 c -0.828,0.0427 -1.62933,0.0427 -2.41067,0 -0.74,-0.088 -1.37066,-0.28667 -1.89066,-0.588 -0.52134,-0.30267 -0.89067,-0.76 -1.10934,-1.36934 -0.21866,-0.65199 -0.21866,-1.52133 0,-2.60933 0.172,-0.87066 0.41067,-1.54266 0.71867,-2.02133 0.344,-0.52133 0.80133,-0.89067 1.364,-1.10933 0.568,-0.26 1.24,-0.412 2.02667,-0.45334 0.82266,-0.088 1.80133,-0.13066 2.932,-0.13066 l 2.15066,-10.76 c 0.26134,-1.172 0.912,-1.912 1.95867,-2.21334 1.084,-0.34933 2.28133,-0.52666 3.584,-0.52666 0.60933,0 1.19733,0.048 1.76,0.13066 0.568,0.0467 1.04133,0.17734 1.43733,0.396 0.432,0.172 0.76,0.45334 0.97334,0.844 0.22,0.348 0.26133,0.80667 0.13066,1.36934 l -2.15066,10.76 h 21.12533 c 0.656,0 1.43733,-0.02 2.348,-0.0667 0.95866,-0.0427 1.80266,0.0467 2.54266,0.26 0.78534,0.17733 1.416,0.52533 1.89067,1.04667 0.47867,0.52133 0.60933,1.344 0.39467,2.47466 -0.21867,1.04667 -0.69734,2.02 -1.43734,2.93733 -0.692,0.91067 -1.5,1.39067 -2.41066,1.432 -0.43734,0.0467 -1.21867,0.068 -2.34934,0.068 -1.084,0 -2.39066,0 -3.912,0 z"
         style="fill:#f9f9f9;fill-opacity:1;fill-rule:nonzero;stroke:none;stroke-width:1.33333" />
      <path
         id="path77"
         d="m 170.87924,245.27913 -7.49467,37.48934 c -0.43733,2.26 -0.54666,4.172 -0.328,5.74 0.21867,1.56133 0.80267,2.82266 1.76,3.78 0.95867,0.95333 2.26134,1.652 3.912,2.084 1.65067,0.396 3.672,0.588 6.06267,0.588 2.30667,0 4.26,-0.23867 5.86933,-0.71867 1.60933,-0.47333 2.97867,-0.97333 4.10933,-1.5 1.13067,-0.56267 2.06267,-1.08267 2.80267,-1.56267 0.78133,-0.47866 1.45733,-0.71866 2.02,-0.71866 1.308,0 2.08933,0.328 2.34933,0.98 0.30267,0.65066 0.34934,1.43733 0.13067,2.348 -0.21867,1.13066 -0.912,2.26133 -2.08933,3.39066 -1.12934,1.084 -2.604,2.084 -4.432,3 -1.78134,0.87067 -3.84934,1.584 -6.192,2.152 -2.34933,0.56267 -4.82933,0.848 -7.43333,0.848 -2.69734,0 -5.328,-0.26533 -7.89067,-0.78533 -2.56667,-0.48 -4.80133,-1.37067 -6.71867,-2.672 -1.86933,-1.34933 -3.23333,-3.19333 -4.104,-5.54267 -0.828,-2.348 -0.86933,-5.39066 -0.12933,-9.12933 l 7.952,-39.64133 c -0.828,0.0427 -1.62933,0.0427 -2.41067,0 -0.74,-0.088 -1.37066,-0.28667 -1.89066,-0.588 -0.52134,-0.30267 -0.89067,-0.76 -1.10934,-1.36934 -0.21866,-0.65199 -0.21866,-1.52133 0,-2.60933 0.172,-0.87066 0.41067,-1.54266 0.71867,-2.02133 0.344,-0.52133 0.80133,-0.89067 1.364,-1.10933 0.568,-0.26 1.24,-0.412 2.02667,-0.45334 0.82266,-0.088 1.80133,-0.13066 2.932,-0.13066 l 2.15066,-10.76 c 0.26134,-1.172 0.912,-1.912 1.95867,-2.21334 1.084,-0.34933 2.28133,-0.52666 3.584,-0.52666 0.60933,0 1.19733,0.048 1.76,0.13066 0.568,0.0467 1.04133,0.17734 1.43733,0.396 0.432,0.172 0.76,0.45334 0.97334,0.844 0.22,0.348 0.26133,0.80667 0.13066,1.36934 l -2.15066,10.76 h 21.12533 c 0.656,0 1.43733,-0.02 2.348,-0.0667 0.95866,-0.0427 1.80266,0.0467 2.54266,0.26 0.78534,0.17733 1.416,0.52533 1.89067,1.04667 0.47867,0.52133 0.60933,1.344 0.39467,2.47466 -0.21867,1.04667 -0.69734,2.02 -1.43734,2.93733 -0.692,0.91067 -1.5,1.39067 -2.41066,1.432 -0.43734,0.0467 -1.21867,0.068 -2.34934,0.068 -1.084,0 -2.39066,0 -3.912,0 z"
         style="fill:#f9f9f9;fill-opacity:1;fill-rule:nonzero;stroke:none;stroke-width:1.33333" />
      <path
         id="path19"
         d="m 173.10015,251.93752 21.5,4.67733 -8.62534,39.63066 -21.5,-4.67733 z"
         style="fill:#ffffff;fill-opacity:1;fill-rule:nonzero;stroke:none;stroke-width:1.33333" />
      <path
         id="path23"
         d="m 131.285,408.576 -5.621,-28.117 c -0.328,-1.695 -0.41,-3.129 -0.246,-4.305 0.164,-1.171 0.602,-2.117 1.32,-2.835 0.719,-0.715 1.696,-1.239 2.934,-1.563 1.238,-0.297 2.754,-0.441 4.547,-0.441 1.73,0 3.195,0.179 4.402,0.539 1.207,0.355 2.234,0.73 3.082,1.125 0.848,0.422 1.547,0.812 2.102,1.172 0.586,0.359 1.093,0.539 1.515,0.539 0.981,0 1.567,-0.246 1.762,-0.735 0.227,-0.488 0.262,-1.078 0.098,-1.761 -0.164,-0.848 -0.684,-1.696 -1.567,-2.543 -0.847,-0.813 -1.953,-1.563 -3.324,-2.25 -1.336,-0.653 -2.887,-1.188 -4.644,-1.614 -1.762,-0.422 -3.622,-0.636 -5.575,-0.636 -2.023,0 -3.996,0.199 -5.918,0.589 -1.925,0.36 -3.601,1.028 -5.039,2.004 -1.402,1.012 -2.425,2.395 -3.078,4.157 -0.621,1.761 -0.652,4.043 -0.097,6.847 l 5.964,29.731 c -0.621,-0.032 -1.222,-0.032 -1.808,0 -0.555,0.066 -1.028,0.215 -1.418,0.441 -0.391,0.227 -0.668,0.57 -0.832,1.027 -0.164,0.489 -0.164,1.141 0,1.957 0.129,0.653 0.308,1.157 0.539,1.516 0.258,0.391 0.601,0.668 1.023,0.832 0.426,0.195 0.93,0.309 1.52,0.34 0.617,0.066 1.351,0.098 2.199,0.098 l 1.613,8.07 c 0.196,0.879 0.684,1.434 1.469,1.66 0.813,0.262 1.711,0.395 2.688,0.395 0.457,0 0.898,-0.036 1.32,-0.098 0.426,-0.035 0.781,-0.133 1.078,-0.297 0.324,-0.129 0.57,-0.34 0.73,-0.633 0.165,-0.261 0.196,-0.605 0.098,-1.027 l -1.613,-8.07 h 15.844 c 0.492,0 1.078,0.015 1.761,0.05 0.719,0.032 1.352,-0.035 1.907,-0.195 0.589,-0.133 1.062,-0.394 1.418,-0.785 0.359,-0.391 0.457,-1.008 0.296,-1.856 -0.164,-0.785 -0.523,-1.515 -1.078,-2.203 -0.519,-0.683 -1.125,-1.043 -1.808,-1.074 -0.328,-0.035 -0.914,-0.051 -1.762,-0.051 -0.813,0 -1.793,0 -2.934,0 z"
         style="fill:#003380;fill-opacity:1;fill-rule:nonzero;stroke:none"
         transform="matrix(1.3333333,0,0,-1.3333333,0,793.70077)" />
      <path
         id="path24"
         d="m 184.762,388.135 c -1.727,-0.422 -3.715,-0.848 -5.965,-1.27 -2.219,-0.39 -4.516,-0.781 -6.895,-1.175 -2.379,-0.356 -4.746,-0.7 -7.09,-1.024 -2.347,-0.328 -4.468,-0.605 -6.359,-0.832 -0.324,-2.055 -0.457,-3.863 -0.391,-5.43 0.098,-1.562 0.54,-2.882 1.321,-3.96 0.781,-1.043 1.972,-1.84 3.57,-2.395 1.629,-0.523 3.797,-0.785 6.504,-0.785 2.707,0 5.02,0.215 6.945,0.637 1.953,0.425 3.586,0.898 4.887,1.418 1.34,0.523 2.414,0.996 3.231,1.418 0.812,0.457 1.433,0.718 1.855,0.785 0.785,0.031 1.371,-0.2 1.762,-0.688 0.39,-0.488 0.504,-1.125 0.343,-1.906 -0.195,-1.043 -0.816,-2.039 -1.859,-2.984 -1.012,-0.911 -2.379,-1.727 -4.109,-2.446 -1.727,-0.715 -3.766,-1.285 -6.11,-1.711 -2.316,-0.422 -4.89,-0.636 -7.726,-0.636 -3.293,0 -6.067,0.246 -8.317,0.734 -2.25,0.488 -4.074,1.207 -5.476,2.152 -1.403,0.977 -2.43,2.153 -3.082,3.52 -0.649,1.371 -1.043,2.937 -1.172,4.695 -0.129,1.793 -0.051,3.766 0.246,5.918 0.293,2.152 0.699,4.465 1.223,6.945 0.781,3.946 1.742,7.532 2.882,10.758 1.141,3.227 2.708,5.965 4.696,8.215 2.019,2.281 4.582,4.043 7.679,5.281 3.094,1.239 6.977,1.86 11.637,1.86 3.031,0 5.785,-0.278 8.266,-0.832 2.476,-0.555 4.547,-1.418 6.211,-2.59 1.66,-1.176 2.851,-2.692 3.57,-4.551 0.746,-1.855 0.926,-4.09 0.535,-6.699 -0.262,-1.824 -0.652,-3.391 -1.172,-4.695 -0.523,-1.301 -1.273,-2.446 -2.25,-3.422 -0.976,-0.977 -2.234,-1.809 -3.765,-2.493 -1.5,-0.687 -3.375,-1.289 -5.625,-1.812 z m -4.938,21.273 c -2.543,0 -4.762,-0.211 -6.652,-0.636 -1.856,-0.391 -3.453,-0.977 -4.793,-1.758 -1.336,-0.785 -2.461,-1.746 -3.371,-2.887 -0.914,-1.14 -1.696,-2.461 -2.348,-3.961 -0.621,-1.465 -1.176,-3.113 -1.664,-4.937 -0.457,-1.793 -0.93,-3.735 -1.418,-5.821 1.434,0.196 3.145,0.422 5.133,0.684 1.992,0.293 4.043,0.605 6.164,0.93 2.152,0.324 4.27,0.652 6.355,0.976 2.086,0.36 3.946,0.703 5.579,1.028 2.312,0.488 4.074,1.273 5.281,2.347 1.238,1.11 2.004,2.774 2.297,4.989 0.226,1.468 0.082,2.753 -0.442,3.863 -0.488,1.14 -1.222,2.086 -2.199,2.836 -0.976,0.785 -2.152,1.371 -3.519,1.761 -1.372,0.391 -2.84,0.586 -4.403,0.586 z"
         style="fill:#003380;fill-opacity:1;fill-rule:nonzero;stroke:none"
         transform="matrix(1.3333333,0,0,-1.3333333,0,793.70077)" />
      <path
         id="path25"
         d="m 241.832,393.76 c -0.133,-0.684 -0.262,-1.387 -0.394,-2.102 -0.098,-0.683 -0.227,-1.402 -0.391,-2.152 l -4.449,-22.348 c -0.098,-0.457 -0.278,-0.816 -0.539,-1.078 -0.258,-0.258 -0.586,-0.457 -0.977,-0.586 -0.359,-0.164 -0.766,-0.261 -1.223,-0.293 -0.421,-0.031 -0.863,-0.05 -1.32,-0.05 -1.012,0 -1.875,0.117 -2.59,0.343 -0.687,0.227 -0.929,0.782 -0.734,1.664 l 4.156,20.879 c 0.75,3.75 1.254,6.946 1.516,9.586 0.293,2.672 0.164,4.86 -0.391,6.555 -0.523,1.695 -1.531,2.934 -3.031,3.715 -1.5,0.781 -3.637,1.176 -6.406,1.176 -3,0 -5.332,-0.2 -6.997,-0.59 -1.66,-0.36 -2.917,-0.848 -3.765,-1.465 -0.848,-0.59 -1.383,-1.238 -1.613,-1.957 -0.227,-0.719 -0.407,-1.418 -0.536,-2.102 l -7.14,-35.797 c -0.098,-0.457 -0.278,-0.816 -0.539,-1.078 -0.262,-0.258 -0.586,-0.457 -0.977,-0.586 -0.359,-0.164 -0.765,-0.261 -1.222,-0.293 -0.426,-0.031 -0.864,-0.05 -1.321,-0.05 -0.98,0 -1.828,0.117 -2.543,0.343 -0.718,0.227 -0.98,0.782 -0.785,1.664 l 7.68,38.438 c 0.324,1.562 0.879,2.933 1.664,4.105 0.781,1.207 2.019,2.219 3.715,3.032 1.695,0.816 3.929,1.437 6.699,1.859 2.805,0.426 6.375,0.637 10.711,0.637 3.422,0 6.144,-0.539 8.164,-1.614 2.023,-1.043 3.523,-2.543 4.5,-4.5 0.652,0.914 1.469,1.743 2.445,2.493 1.012,0.75 2.266,1.386 3.766,1.91 1.5,0.554 3.262,0.976 5.281,1.269 2.024,0.293 4.387,0.442 7.09,0.442 3.652,0 6.539,-0.586 8.656,-1.762 2.153,-1.172 3.684,-2.852 4.598,-5.035 0.945,-2.153 1.371,-4.793 1.273,-7.922 -0.066,-3.098 -0.472,-6.57 -1.222,-10.418 l -4.598,-22.934 c -0.098,-0.457 -0.277,-0.816 -0.539,-1.078 -0.262,-0.261 -0.586,-0.457 -0.977,-0.586 -0.359,-0.164 -0.765,-0.261 -1.222,-0.293 -0.426,-0.031 -0.864,-0.05 -1.321,-0.05 -1.011,0 -1.875,0.117 -2.593,0.343 -0.684,0.227 -0.93,0.782 -0.735,1.664 l 4.16,20.442 c 0.782,3.715 1.286,6.926 1.516,9.633 0.258,2.707 0.113,4.937 -0.441,6.699 -0.555,1.762 -1.598,3.047 -3.129,3.863 -1.535,0.848 -3.684,1.27 -6.457,1.27 -2.446,0 -4.45,-0.211 -6.016,-0.633 -1.562,-0.426 -2.836,-1.012 -3.812,-1.762 -0.977,-0.75 -1.711,-1.644 -2.2,-2.691 -0.492,-1.008 -0.847,-2.117 -1.078,-3.325 z"
         style="fill:#003380;fill-opacity:1;fill-rule:nonzero;stroke:none"
         transform="matrix(1.3333333,0,0,-1.3333333,0,793.70077)" />
      <path
         id="path26"
         d="m 304.031,365.201 c -1.5,0 -3.113,0.032 -4.84,0.098 -1.695,0.031 -3.375,0.148 -5.039,0.344 -1.66,0.195 -3.257,0.472 -4.793,0.828 -1.531,0.394 -2.882,0.914 -4.058,1.566 l -3.961,-19.953 c -0.129,-0.652 -0.278,-1.172 -0.438,-1.562 -0.164,-0.391 -0.359,-0.688 -0.59,-0.883 -0.195,-0.195 -0.437,-0.309 -0.73,-0.34 -0.297,-0.066 -0.652,-0.098 -1.078,-0.098 -0.488,0 -1.027,0.032 -1.613,0.098 -0.586,0.063 -1.125,0.242 -1.614,0.535 -0.457,0.262 -0.8,0.653 -1.027,1.176 -0.227,0.519 -0.262,1.254 -0.098,2.199 l 11.297,56.336 c 0.227,1.207 0.848,2.281 1.86,3.227 1.007,0.945 2.265,1.777 3.765,2.496 1.496,0.719 3.192,1.32 5.086,1.808 1.922,0.524 3.895,0.93 5.914,1.223 2.055,0.328 4.094,0.555 6.114,0.684 2.054,0.164 3.996,0.246 5.82,0.246 3.457,0 6.16,-0.653 8.117,-1.957 1.988,-1.27 3.359,-3.078 4.109,-5.426 0.782,-2.317 1.09,-5.086 0.93,-8.317 -0.164,-3.195 -0.637,-6.714 -1.422,-10.562 l -0.097,-0.488 c -0.649,-3.262 -1.465,-6.309 -2.442,-9.145 -0.98,-2.805 -2.285,-5.265 -3.914,-7.383 -1.629,-2.089 -3.684,-3.734 -6.16,-4.941 -2.445,-1.207 -5.481,-1.809 -9.098,-1.809 z m -17.215,10.321 c -0.062,-0.653 0.395,-1.223 1.372,-1.715 0.976,-0.488 2.265,-0.91 3.863,-1.27 1.629,-0.328 3.472,-0.605 5.527,-0.832 2.051,-0.195 4.137,-0.308 6.258,-0.343 1.566,-0.063 3.031,0.066 4.402,0.394 1.403,0.324 2.688,1.008 3.864,2.051 1.171,1.043 2.23,2.512 3.175,4.402 0.946,1.922 1.746,4.449 2.399,7.578 l 1.074,5.481 c 0.59,2.867 0.898,5.297 0.93,7.285 0.066,1.988 -0.082,3.637 -0.442,4.937 -0.324,1.34 -0.828,2.364 -1.515,3.082 -0.653,0.75 -1.418,1.305 -2.297,1.665 -0.879,0.359 -1.809,0.57 -2.789,0.632 -0.946,0.102 -1.891,0.149 -2.836,0.149 -2.215,0 -4.352,-0.164 -6.406,-0.489 -2.02,-0.292 -3.829,-0.703 -5.426,-1.222 -1.567,-0.524 -2.856,-1.11 -3.864,-1.762 -0.98,-0.652 -1.55,-1.336 -1.71,-2.055 z"
         style="fill:#003380;fill-opacity:1;fill-rule:nonzero;stroke:none"
         transform="matrix(1.3333333,0,0,-1.3333333,0,793.70077)" />
      <path
         id="path27"
         d="m 335.512,367.303 c -0.063,-0.457 -0.242,-0.813 -0.535,-1.074 -0.262,-0.262 -0.59,-0.473 -0.981,-0.637 -0.359,-0.164 -0.766,-0.262 -1.223,-0.293 -0.421,-0.066 -0.863,-0.098 -1.32,-0.098 -0.976,0 -1.824,0.149 -2.543,0.442 -0.683,0.258 -0.945,0.812 -0.781,1.66 l 13.105,65.383 c 0.164,0.847 0.422,1.402 0.782,1.664 0.39,0.293 1.078,0.441 2.054,0.441 0.524,0 1.059,-0.066 1.614,-0.199 0.586,-0.098 1.093,-0.293 1.515,-0.586 0.457,-0.262 0.785,-0.617 0.981,-1.074 0.226,-0.457 0.277,-1.043 0.144,-1.762 z"
         style="fill:#003380;fill-opacity:1;fill-rule:nonzero;stroke:none"
         transform="matrix(1.3333333,0,0,-1.3333333,0,793.70077)" />
      <path
         id="path28"
         d="m 376.699,366.276 c -2.019,-0.161 -4.48,-0.391 -7.383,-0.684 -2.902,-0.293 -6.031,-0.441 -9.39,-0.441 -3.977,0 -7.024,0.605 -9.145,1.812 -2.117,1.203 -3.601,2.852 -4.449,4.938 -0.816,2.121 -1.125,4.582 -0.93,7.382 0.196,2.84 0.621,5.887 1.274,9.149 l 0.097,0.488 c 0.879,4.367 2.004,8.199 3.375,11.492 1.368,3.293 3.047,6.032 5.036,8.215 1.988,2.215 4.289,3.863 6.894,4.938 2.61,1.109 5.61,1.664 9,1.664 1.856,0 3.75,-0.082 5.672,-0.246 1.922,-0.129 3.75,-0.391 5.477,-0.782 1.726,-0.359 3.324,-0.879 4.793,-1.566 1.5,-0.684 2.722,-1.563 3.668,-2.641 0.976,-1.074 1.66,-2.379 2.054,-3.91 0.422,-1.531 0.422,-3.344 0,-5.43 l -6.211,-31.101 c -0.195,-0.848 -0.508,-1.531 -0.929,-2.055 -0.391,-0.519 -0.899,-0.945 -1.516,-1.269 -0.586,-0.328 -1.258,-0.539 -2.004,-0.637 -0.75,-0.129 -1.535,-0.195 -2.348,-0.195 z m 8.317,32.668 c 0.129,0.652 0.226,1.351 0.293,2.101 0.062,0.75 0,1.5 -0.196,2.25 -0.164,0.75 -0.492,1.469 -0.98,2.152 -0.488,0.719 -1.223,1.336 -2.199,1.86 -0.977,0.519 -2.235,0.945 -3.766,1.269 -1.531,0.328 -3.438,0.493 -5.723,0.493 -1.105,0 -2.23,-0.067 -3.375,-0.2 -1.14,-0.097 -2.281,-0.355 -3.422,-0.781 -1.14,-0.391 -2.265,-0.976 -3.375,-1.762 -1.074,-0.746 -2.085,-1.773 -3.031,-3.078 -0.945,-1.304 -1.808,-2.918 -2.59,-4.844 -0.785,-1.921 -1.453,-4.218 -2.007,-6.894 l -0.977,-4.988 c -0.652,-3.196 -0.914,-5.785 -0.781,-7.774 0.16,-1.988 0.652,-3.539 1.465,-4.648 0.847,-1.106 2.023,-1.856 3.523,-2.246 1.5,-0.395 3.273,-0.59 5.328,-0.59 3.067,0.035 5.805,0.215 8.215,0.539 2.445,0.328 4.633,0.57 6.555,0.734 0.293,0.032 0.621,0.032 0.976,0 0.36,-0.035 0.606,-0.082 0.735,-0.148 z"
         style="fill:#003380;fill-opacity:1;fill-rule:nonzero;stroke:none"
         transform="matrix(1.3333333,0,0,-1.3333333,0,793.70077)" />
      <path
         id="path29"
         d="m 419.23,415.178 c 1.5,0 3.079,-0.078 4.743,-0.242 1.664,-0.133 3.324,-0.36 4.988,-0.684 1.664,-0.297 3.242,-0.703 4.742,-1.223 1.5,-0.523 2.836,-1.16 4.012,-1.91 l 4.207,21.176 c 0.129,0.652 0.273,1.176 0.437,1.567 0.164,0.39 0.344,0.683 0.539,0.878 0.196,0.196 0.442,0.309 0.735,0.344 0.324,0.063 0.699,0.098 1.125,0.098 0.488,0 1.027,-0.035 1.613,-0.098 0.586,-0.066 1.109,-0.246 1.563,-0.539 0.457,-0.262 0.8,-0.668 1.027,-1.223 0.262,-0.523 0.312,-1.238 0.148,-2.152 L 437.52,373.272 c -0.262,-1.207 -0.883,-2.25 -1.86,-3.133 -0.976,-0.848 -2.215,-1.578 -3.715,-2.199 -1.468,-0.586 -3.148,-1.075 -5.039,-1.465 -1.859,-0.36 -3.797,-0.637 -5.82,-0.832 -2.02,-0.196 -4.043,-0.328 -6.063,-0.391 -2.019,-0.066 -3.945,-0.098 -5.769,-0.098 -3.488,0 -6.211,0.633 -8.168,1.907 -1.957,1.304 -3.324,3.113 -4.106,5.426 -0.785,2.347 -1.093,5.121 -0.929,8.316 0.195,3.226 0.683,6.762 1.465,10.609 l 0.097,0.489 c 0.653,3.261 1.469,6.293 2.446,9.097 0.98,2.836 2.281,5.297 3.914,7.383 1.629,2.121 3.668,3.781 6.113,4.988 2.476,1.207 5.523,1.809 9.144,1.809 z m -5.773,-43.816 c 2.219,0 4.32,0.066 6.309,0.195 2.023,0.164 3.8,0.394 5.332,0.687 1.566,0.325 2.82,0.735 3.765,1.223 0.977,0.52 1.532,1.141 1.664,1.855 l 5.621,27.973 c 0.067,0.652 -0.375,1.305 -1.32,1.957 -0.945,0.652 -2.215,1.238 -3.812,1.762 -1.567,0.555 -3.36,1.008 -5.379,1.367 -2.024,0.359 -4.094,0.57 -6.211,0.637 -1.567,0.031 -3.051,-0.114 -4.449,-0.442 -1.403,-0.293 -2.692,-0.961 -3.864,-2.004 -1.144,-1.043 -2.187,-2.527 -3.133,-4.449 -0.91,-1.89 -1.695,-4.402 -2.347,-7.531 l -1.125,-5.477 c -0.586,-2.871 -0.91,-5.296 -0.977,-7.289 -0.031,-1.988 0.114,-3.648 0.442,-4.984 0.359,-1.305 0.863,-2.332 1.515,-3.082 0.684,-0.719 1.45,-1.258 2.297,-1.613 0.883,-0.36 1.809,-0.59 2.789,-0.688 0.977,-0.062 1.938,-0.097 2.883,-0.097 z"
         style="fill:#003380;fill-opacity:1;fill-rule:nonzero;stroke:none"
         transform="matrix(1.3333333,0,0,-1.3333333,0,793.70077)" />
      <path
         id="path30"
         d="m 464.742,365.151 c -3.328,0 -6.129,0.312 -8.414,0.929 -2.246,0.621 -4.09,1.485 -5.523,2.594 -1.403,1.141 -2.446,2.477 -3.129,4.008 -0.688,1.566 -1.11,3.262 -1.274,5.086 -0.129,1.859 -0.082,3.832 0.149,5.918 0.226,2.086 0.57,4.222 1.027,6.406 v 0.195 c 0.453,2.184 0.977,4.321 1.563,6.407 0.586,2.085 1.32,4.043 2.199,5.871 0.914,1.855 2.023,3.55 3.328,5.082 1.305,1.566 2.883,2.902 4.742,4.011 1.891,1.141 4.074,2.02 6.555,2.641 2.508,0.621 5.426,0.93 8.754,0.93 h 0.293 c 3.324,0 6.129,-0.309 8.41,-0.93 2.281,-0.621 4.125,-1.5 5.527,-2.641 1.399,-1.109 2.446,-2.445 3.129,-4.011 0.715,-1.532 1.141,-3.227 1.27,-5.082 0.164,-1.828 0.132,-3.786 -0.098,-5.871 -0.227,-2.086 -0.57,-4.223 -1.027,-6.407 v -0.195 c -0.453,-2.184 -0.977,-4.32 -1.563,-6.406 -0.586,-2.086 -1.336,-4.059 -2.25,-5.918 -0.879,-1.824 -1.988,-3.52 -3.324,-5.086 -1.305,-1.531 -2.887,-2.867 -4.746,-4.008 -1.856,-1.109 -4.043,-1.973 -6.551,-2.594 -2.512,-0.617 -5.43,-0.929 -8.754,-0.929 z m 1.809,6.066 c 3.129,0 5.722,0.391 7.773,1.172 2.055,0.816 3.75,1.988 5.086,3.523 1.34,1.563 2.399,3.473 3.18,5.719 0.816,2.285 1.515,4.891 2.101,7.824 l 0.297,1.52 c 0.586,2.898 0.926,5.476 1.024,7.726 0.133,2.282 -0.16,4.188 -0.879,5.719 -0.719,1.567 -1.938,2.738 -3.668,3.524 -1.727,0.812 -4.156,1.222 -7.285,1.222 h -0.981 c -3.129,0 -5.719,-0.41 -7.773,-1.222 -2.055,-0.786 -3.75,-1.957 -5.086,-3.524 -1.336,-1.531 -2.395,-3.437 -3.18,-5.719 -0.781,-2.25 -1.465,-4.828 -2.055,-7.726 l -0.293,-1.52 c -0.585,-2.898 -0.945,-5.492 -1.074,-7.773 -0.129,-2.25 0.164,-4.156 0.879,-5.723 0.719,-1.531 1.942,-2.707 3.668,-3.519 1.727,-0.817 4.156,-1.223 7.285,-1.223 z"
         style="fill:#003380;fill-opacity:1;fill-rule:nonzero;stroke:none"
         transform="matrix(1.3333333,0,0,-1.3333333,0,793.70077)" />
      <g
         id="g22"
         clip-path="url(#clipPath22)"
         transform="translate(-2.1928871,-1.6301522)">
        <g
           id="g21">
          <path
             d="m 142.148,384.652 c 0.567,0.391 1.02,0.879 1.36,1.461 0.332,0.547 0.547,1.145 0.648,1.793 0.082,0.633 0.043,1.297 -0.113,1.992 -0.156,0.696 -0.449,1.364 -0.883,1.997 l -36.969,53.976 c -0.437,0.633 -0.949,1.149 -1.543,1.543 -0.589,0.398 -1.195,0.672 -1.816,0.828 -0.641,0.137 -1.277,0.153 -1.906,0.039 -0.668,-0.101 -1.285,-0.347 -1.852,-0.738 l -31.07,-21.277 c -0.414,-0.286 -0.641,-0.684 -0.68,-1.188 -0.074,-0.504 -0.164,-1 -0.277,-1.492 l -5.715,-29.191 c 0.047,-0.352 0.082,-0.637 0.098,-0.848 0.004,-0.192 0.117,-0.449 0.34,-0.777 l 26.398,-38.543 c 0.434,-0.633 0.945,-1.149 1.539,-1.543 0.594,-0.399 1.211,-0.664 1.852,-0.805 0.64,-0.137 1.273,-0.152 1.906,-0.043 0.644,0.09 1.23,0.316 1.754,0.676 z M 92.547,356.555 c -0.074,0.011 -0.137,0.031 -0.188,0.062 -0.054,0.028 -0.14,0.129 -0.257,0.305 -34.782,40.39 -6.504,75.238 9.71,86.625 0.075,-0.016 0.137,-0.035 0.188,-0.067 0.051,-0.027 0.137,-0.128 0.258,-0.304 l 36.969,-53.977 c 0.121,-0.172 0.183,-0.289 0.191,-0.347 0.008,-0.059 0.004,-0.125 -0.008,-0.2 z m -20.781,64.004 c -68.051,-167.461 -34.024,-83.731 0,0 z"
             style="fill:#ff0000;fill-opacity:1;fill-rule:nonzero;stroke:none"
             clip-path="url(#clipPath20)"
             id="path21"
             transform="matrix(1.3333333,0,0,-1.3333333,0,794.66667)" />
        </g>
      </g>
    </g>
  </g>
</svg>
